<?xml version="1.0" standalone="no"?>
<!DOCTYPE svg PUBLIC "-//W3C//DTD SVG 20010904//EN"
 "http://www.w3.org/TR/2001/REC-SVG-20010904/DTD/svg10.dtd">
<svg version="1.0" xmlns="http://www.w3.org/2000/svg"
 width="240.000000pt" height="240.000000pt" viewBox="0 0 240.000000 240.000000"
 preserveAspectRatio="xMidYMid meet">
<metadata>
Created by potrace 1.15, written by Peter Selinger 2001-2017
</metadata>
<g transform="translate(0.000000,240.000000) scale(0.100000,-0.100000)"
fill="#000000" stroke="none">
<path d="M1210 2180 c-155 -38 -288 -117 -395 -232 -82 -89 -135 -178 -177
-299 -31 -89 -32 -101 -33 -244 0 -130 3 -160 23 -225 28 -88 71 -176 119
-243 19 -27 33 -50 31 -52 -2 -1 -43 -15 -91 -29 l-88 -27 -194 -181 c-212
-197 -212 -198 -203 -298 11 -110 130 -186 235 -150 19 7 98 84 211 204 l181
194 26 88 c15 49 29 90 30 92 1 2 29 -16 61 -38 262 -184 627 -188 893 -12
231 154 361 395 361 672 0 378 -248 692 -615 781 -105 25 -271 25 -375 -1z
m295 -195 c223 -40 404 -205 471 -430 24 -80 24 -229 0 -310 -49 -166 -160
-301 -307 -374 -237 -118 -504 -75 -689 110 -231 231 -232 605 0 838 92 94
206 151 335 170 85 12 101 12 190 -4z"/>
</g>
</svg>
